<svg xmlns="http://www.w3.org/2000/svg" xmlns:xlink="http://www.w3.org/1999/xlink" width="1024" height="400">\n<path  d="M 0 0
L 1024 0
L 1024 400
L 0 400
L 0 0" style="stroke-width:0;stroke:rgba(255,255,255,1.0);fill:rgba(255,255,255,1.0)"/><path  d="M 38 11
L 983 11
L 983 373
L 38 373
L 38 11" style="stroke-width:0;stroke:rgba(255,255,255,1.0);fill:rgba(255,255,255,1.0)"/><path  d="M 38 373
L 983 373" style="stroke-width:1;stroke:rgba(51,51,51,1.0);fill:none"/><path  d="M 38 373
L 38 378" style="stroke-width:1;stroke:rgba(51,51,51,1.0);fill:none"/><text x="5" y="395" style="stroke-width:0;stroke:none;fill:rgba(51,51,51,1.0);font-size:12.8px;font-family:'Roboto Medium',sans-serif">2022-03-09</text><path  d="M 157 373
L 157 378" style="stroke-width:1;stroke:rgba(51,51,51,1.0);fill:none"/><text x="124" y="395" style="stroke-width:0;stroke:none;fill:rgba(51,51,51,1.0);font-size:12.8px;font-family:'Roboto Medium',sans-serif">2022-03-09</text><path  d="M 275 373
L 275 378" style="stroke-width:1;stroke:rgba(51,51,51,1.0);fill:none"/><text x="242" y="395" style="stroke-width:0;stroke:none;fill:rgba(51,51,51,1.0);font-size:12.8px;font-family:'Roboto Medium',sans-serif">2022-03-09</text><path  d="M 393 373
L 393 378" style="stroke-width:1;stroke:rgba(51,51,51,1.0);fill:none"/><text x="360" y="395" style="stroke-width:0;stroke:none;fill:rgba(51,51,51,1.0);font-size:12.8px;font-family:'Roboto Medium',sans-serif">2022-03-09</text><path  d="M 511 373
L 511 378" style="stroke-width:1;stroke:rgba(51,51,51,1.0);fill:none"/><text x="478" y="395" style="stroke-width:0;stroke:none;fill:rgba(51,51,51,1.0);font-size:12.8px;font-family:'Roboto Medium',sans-serif">2022-03-09</text><path  d="M 629 373
L 629 378" style="stroke-width:1;stroke:rgba(51,51,51,1.0);fill:none"/><text x="596" y="395" style="stroke-width:0;stroke:none;fill:rgba(51,51,51,1.0);font-size:12.8px;font-family:'Roboto Medium',sans-serif">2022-03-09</text><path  d="M 747 373
L 747 378" style="stroke-width:1;stroke:rgba(51,51,51,1.0);fill:none"/><text x="714" y="395" style="stroke-width:0;stroke:none;fill:rgba(51,51,51,1.0);font-size:12.8px;font-family:'Roboto Medium',sans-serif">2022-03-09</text><path  d="M 865 373
L 865 378" style="stroke-width:1;stroke:rgba(51,51,51,1.0);fill:none"/><text x="832" y="395" style="stroke-width:0;stroke:none;fill:rgba(51,51,51,1.0);font-size:12.8px;font-family:'Roboto Medium',sans-serif">2022-03-09</text><path  d="M 983 373
L 983 378" style="stroke-width:1;stroke:rgba(51,51,51,1.0);fill:none"/><text x="950" y="395" style="stroke-width:0;stroke:none;fill:rgba(51,51,51,1.0);font-size:12.8px;font-family:'Roboto Medium',sans-serif">2022-03-09</text><path  d="M 157 373
L 157 11" style="stroke-width:0;stroke:none;fill:none"/><path  d="M 275 373
L 275 11" style="stroke-width:0;stroke:none;fill:none"/><path  d="M 393 373
L 393 11" style="stroke-width:0;stroke:none;fill:none"/><path  d="M 511 373
L 511 11" style="stroke-width:0;stroke:none;fill:none"/><path  d="M 629 373
L 629 11" style="stroke-width:0;stroke:none;fill:none"/><path  d="M 747 373
L 747 11" style="stroke-width:0;stroke:none;fill:none"/><path  d="M 865 373
L 865 11" style="stroke-width:0;stroke:none;fill:none"/><path  d="M 984 373
L 984 11" style="stroke-width:1;stroke:rgba(51,51,51,1.0);fill:none"/><path  d="M 984 373
L 989 373" style="stroke-width:1;stroke:rgba(51,51,51,1.0);fill:none"/><text x="994" y="379" style="stroke-width:0;stroke:none;fill:rgba(51,51,51,1.0);font-size:12.8px;font-family:'Roboto Medium',sans-serif">1.00</text><path  d="M 984 332
L 989 332" style="stroke-width:1;stroke:rgba(51,51,51,1.0);fill:none"/><text x="994" y="338" style="stroke-width:0;stroke:none;fill:rgba(51,51,51,1.0);font-size:12.8px;font-family:'Roboto Medium',sans-serif">1.45</text><path  d="M 984 292
L 989 292" style="stroke-width:1;stroke:rgba(51,51,51,1.0);fill:none"/><text x="994" y="298" style="stroke-width:0;stroke:none;fill:rgba(51,51,51,1.0);font-size:12.8px;font-family:'Roboto Medium',sans-serif">1.89</text><path  d="M 984 251
L 989 251" style="stroke-width:1;stroke:rgba(51,51,51,1.0);fill:none"/><text x="994" y="257" style="stroke-width:0;stroke:none;fill:rgba(51,51,51,1.0);font-size:12.8px;font-family:'Roboto Medium',sans-serif">2.34</text><path  d="M 984 211
L 989 211" style="stroke-width:1;stroke:rgba(51,51,51,1.0);fill:none"/><text x="994" y="217" style="stroke-width:0;stroke:none;fill:rgba(51,51,51,1.0);font-size:12.8px;font-family:'Roboto Medium',sans-serif">2.78</text><path  d="M 984 171
L 989 171" style="stroke-width:1;stroke:rgba(51,51,51,1.0);fill:none"/><text x="994" y="177" style="stroke-width:0;stroke:none;fill:rgba(51,51,51,1.0);font-size:12.8px;font-family:'Roboto Medium',sans-serif">3.23</text><path  d="M 984 131
L 989 131" style="stroke-width:1;stroke:rgba(51,51,51,1.0);fill:none"/><text x="994" y="137" style="stroke-width:0;stroke:none;fill:rgba(51,51,51,1.0);font-size:12.8px;font-family:'Roboto Medium',sans-serif">3.67</text><path  d="M 984 90
L 989 90" style="stroke-width:1;stroke:rgba(51,51,51,1.0);fill:none"/><text x="994" y="96" style="stroke-width:0;stroke:none;fill:rgba(51,51,51,1.0);font-size:12.8px;font-family:'Roboto Medium',sans-serif">4.12</text><path  d="M 984 50
L 989 50" style="stroke-width:1;stroke:rgba(51,51,51,1.0);fill:none"/><text x="994" y="56" style="stroke-width:0;stroke:none;fill:rgba(51,51,51,1.0);font-size:12.8px;font-family:'Roboto Medium',sans-serif">4.56</text><path  d="M 984 11
L 989 11" style="stroke-width:1;stroke:rgba(51,51,51,1.0);fill:none"/><text x="994" y="17" style="stroke-width:0;stroke:none;fill:rgba(51,51,51,1.0);font-size:12.8px;font-family:'Roboto Medium',sans-serif">5.00</text><path  d="M 38 463
L 983 463" style="stroke-width:0;stroke:none;fill:none"/><path  d="M 38 332
L 983 332" style="stroke-width:0;stroke:none;fill:none"/><path  d="M 38 292
L 983 292" style="stroke-width:0;stroke:none;fill:none"/><path  d="M 38 251
L 983 251" style="stroke-width:0;stroke:none;fill:none"/><path  d="M 38 211
L 983 211" style="stroke-width:0;stroke:none;fill:none"/><path  d="M 38 171
L 983 171" style="stroke-width:0;stroke:none;fill:none"/><path  d="M 38 131
L 983 131" style="stroke-width:0;stroke:none;fill:none"/><path  d="M 38 90
L 983 90" style="stroke-width:0;stroke:none;fill:none"/><path  d="M 38 50
L 983 50" style="stroke-width:0;stroke:none;fill:none"/><path  d="M 37 373
L 37 11" style="stroke-width:1;stroke:rgba(51,51,51,1.0);fill:none"/><path  d="M 37 -9223372036854775435
L 32 -9223372036854775435" style="stroke-width:1;stroke:rgba(51,51,51,1.0);fill:none"/><text x="1" y="-9223372036854775429" style="stroke-width:0;stroke:none;fill:rgba(51,51,51,1.0);font-size:12.8px;font-family:'Roboto Medium',sans-serif">0.00</text><path  d="M 37 -9223372036854775435
L 32 -9223372036854775435" style="stroke-width:1;stroke:rgba(51,51,51,1.0);fill:none"/><text x="1" y="-9223372036854775429" style="stroke-width:0;stroke:none;fill:rgba(51,51,51,1.0);font-size:12.8px;font-family:'Roboto Medium',sans-serif">0.00</text><path  d="M 37 -9223372036854775435
L 32 -9223372036854775435" style="stroke-width:1;stroke:rgba(51,51,51,1.0);fill:none"/><text x="1" y="-9223372036854775429" style="stroke-width:0;stroke:none;fill:rgba(51,51,51,1.0);font-size:12.8px;font-family:'Roboto Medium',sans-serif">0.00</text><path  d="M 37 -9223372036854775435
L 32 -9223372036854775435" style="stroke-width:1;stroke:rgba(51,51,51,1.0);fill:none"/><text x="1" y="-9223372036854775429" style="stroke-width:0;stroke:none;fill:rgba(51,51,51,1.0);font-size:12.8px;font-family:'Roboto Medium',sans-serif">0.00</text><path  d="M 37 -9223372036854775435
L 32 -9223372036854775435" style="stroke-width:1;stroke:rgba(51,51,51,1.0);fill:none"/><text x="1" y="-9223372036854775429" style="stroke-width:0;stroke:none;fill:rgba(51,51,51,1.0);font-size:12.8px;font-family:'Roboto Medium',sans-serif">0.00</text><path  d="M 37 -9223372036854775435
L 32 -9223372036854775435" style="stroke-width:1;stroke:rgba(51,51,51,1.0);fill:none"/><text x="1" y="-9223372036854775429" style="stroke-width:0;stroke:none;fill:rgba(51,51,51,1.0);font-size:12.8px;font-family:'Roboto Medium',sans-serif">0.00</text><path  d="M 37 -9223372036854775435
L 32 -9223372036854775435" style="stroke-width:1;stroke:rgba(51,51,51,1.0);fill:none"/><text x="1" y="-9223372036854775429" style="stroke-width:0;stroke:none;fill:rgba(51,51,51,1.0);font-size:12.8px;font-family:'Roboto Medium',sans-serif">0.00</text><path  d="M 37 -9223372036854775435
L 32 -9223372036854775435" style="stroke-width:1;stroke:rgba(51,51,51,1.0);fill:none"/><text x="1" y="-9223372036854775429" style="stroke-width:0;stroke:none;fill:rgba(51,51,51,1.0);font-size:12.8px;font-family:'Roboto Medium',sans-serif">0.00</text><path  d="M 37 -9223372036854775435
L 32 -9223372036854775435" style="stroke-width:1;stroke:rgba(51,51,51,1.0);fill:none"/><text x="1" y="-9223372036854775429" style="stroke-width:0;stroke:none;fill:rgba(51,51,51,1.0);font-size:12.8px;font-family:'Roboto Medium',sans-serif">0.00</text><path  d="M 37 -9223372036854775435
L 32 -9223372036854775435" style="stroke-width:1;stroke:rgba(51,51,51,1.0);fill:none"/><text x="1" y="-9223372036854775429" style="stroke-width:0;stroke:none;fill:rgba(51,51,51,1.0);font-size:12.8px;font-family:'Roboto Medium',sans-serif">0.00</text><path  d="M 38 -9223372036854775435
L 983 -9223372036854775435" style="stroke-width:0;stroke:none;fill:none"/><path  d="M 38 -9223372036854775435
L 983 -9223372036854775435" style="stroke-width:0;stroke:none;fill:none"/><path  d="M 38 -9223372036854775435
L 983 -9223372036854775435" style="stroke-width:0;stroke:none;fill:none"/><path  d="M 38 -9223372036854775435
L 983 -9223372036854775435" style="stroke-width:0;stroke:none;fill:none"/><path  d="M 38 -9223372036854775435
L 983 -9223372036854775435" style="stroke-width:0;stroke:none;fill:none"/><path  d="M 38 -9223372036854775435
L 983 -9223372036854775435" style="stroke-width:0;stroke:none;fill:none"/><path  d="M 38 -9223372036854775435
L 983 -9223372036854775435" style="stroke-width:0;stroke:none;fill:none"/><path  d="M 38 -9223372036854775435
L 983 -9223372036854775435" style="stroke-width:0;stroke:none;fill:none"/><path  d="M 38 -9223372036854775435
L 983 -9223372036854775435" style="stroke-width:0;stroke:none;fill:none"/><path  d="M 38 373
L 511 11
L 983 101" style="stroke-width:1;stroke:rgba(0,116,217,1.0);fill:none"/></svg>